Coordinates
version=1
nRows=9
nColumns=38
inDegrees=yes

Units are S.I. units (second, meters, Newtons, ...)
Angles are in degrees.

endheader
time	pelvis_tilt	pelvis_list	pelvis_rotation	pelvis_tx	pelvis_ty	pelvis_tz	hip_flexion_r	hip_adduction_r	hip_rotation_r	knee_angle_r	ankle_angle_r	subtalar_angle_r	mtp_angle_r	hip_flexion_l	hip_adduction_l	hip_rotation_l	knee_angle_l	ankle_angle_l	subtalar_angle_l	mtp_angle_l	lumbar_extension	lumbar_bending	lumbar_rotation	arm_flex_r	arm_add_r	arm_rot_r	elbow_flex_r	pro_sup_r	wrist_flex_r	wrist_dev_r	arm_flex_l	arm_add_l	arm_rot_l	elbow_flex_l	pro_sup_l	wrist_flex_l	wrist_dev_l
      2.00000000	     -0.29885284	      1.97649687	     -0.97552957	     -0.82586344	      0.91595270	      0.22086674	     28.12741344	     -1.03371140	     -3.59033006	    -48.39191347	     -2.42057547	    -12.84303418	     14.61541983	      0.21806157	      6.57918139	      5.53662388	    -15.88688542	     11.08224215	     -0.81085157	      2.49440008	     -5.25917915	     -1.57480211	     -6.05095771	     -6.62472668	    -17.37467600	      9.29157576	     23.41696127	     86.51662706	      0.00000000	      0.00000000	     -4.06549299	    -18.04033716	     11.07330393	     30.61527956	     85.94366927	      0.00000000	      0.00000000
      2.01000000	      0.19208740	      1.86466748	     -0.85267106	     -0.81336495	      0.91568652	      0.22138334	     27.98111872	     -0.99079194	     -3.84119571	    -45.21443832	     -2.22363732	    -13.06526935	     14.29558257	     -1.67315142	      6.36730176	      5.56109160	    -14.98539663	     11.43457788	     -0.48037486	      2.62382986	     -5.83008239	     -1.42908545	     -6.39432932	     -6.67805029	    -17.17889244	      9.02491106	     22.84347729	     86.51662706	      0.00000000	      0.00000000	     -3.70211276	    -18.34226476	     11.06327227	     31.26551956	     85.94366927	      0.00000000	      0.00000000
      2.02000000	      0.56357990	      1.83153688	     -0.72449877	     -0.80092259	      0.91533958	      0.22180198	     27.91277451	     -1.03376117	     -4.09440162	    -41.95395782	     -2.02279870	    -12.67923987	     13.94854116	     -3.39766548	      6.24608634	      5.65492680	    -14.13642004	     11.73479453	     -0.24437184	      2.70690037	     -6.30010718	     -1.35314602	     -6.72232236	     -6.74525957	    -17.01367687	      8.84002692	     22.32417442	     86.51662706	      0.00000000	      0.00000000	     -3.30338606	    -18.61422672	     11.04275887	     31.81905333	     85.94366927	      0.00000000	      0.00000000
      2.03000000	      0.83135645	      1.85055855	     -0.59282666	     -0.78847813	      0.91484770	      0.22222289	     27.89783320	     -1.12822766	     -4.35977481	    -38.62465662	     -1.80576407	    -11.75482626	     13.57447317	     -4.97842933	      6.18200976	      5.79596933	    -13.34376491	     11.99853752	     -0.07848581	      2.75935348	     -6.67341672	     -1.32751611	     -7.03251841	     -6.82617937	    -16.87132476	      8.72211458	     21.85401194	     86.51662706	      0.00000000	      0.00000000	     -2.88184984	    -18.86213815	     11.02171440	     32.28554950	     85.94366927	      0.00000000	      0.00000000
      2.04000000	      1.01327015	      1.88912545	     -0.45964462	     -0.77599225	      0.91403539	      0.22273768	     27.91122955	     -1.23653600	     -4.65351994	    -35.25193312	     -1.55906761	    -10.38250471	     13.17553906	     -6.43880630	      6.13623613	      5.95942427	    -12.61538717	     12.24373043	      0.04778568	      2.79906100	     -6.95566757	     -1.32781528	     -7.32323646	     -6.91962577	    -16.74372462	      8.65351248	     21.42603036	     86.51662706	      0.00000000	      0.00000000	     -2.45190835	    -19.09165634	     11.01138515	     32.67612555	     85.94366927	      0.00000000	      0.00000000
      2.05000000	      1.12669567	      1.91943103	     -0.32685820	     -0.76343746	      0.91275045	      0.22337197	     27.93345341	     -1.32914288	     -4.99602828	    -31.87426966	     -1.27185948	     -8.66092518	     12.75650962	     -7.79681769	      6.07472168	      6.12429601	    -11.96383632	     12.48504535	      0.16520040	      2.84207895	     -7.15519204	     -1.33049959	     -7.59477274	     -7.02266179	    -16.62449833	      8.61753728	     21.03236666	     86.51662706	      0.00000000	      0.00000000	     -2.02584627	    -19.30608015	     11.02120620	     33.00084059	     85.94366927	      0.00000000	      0.00000000
      2.06000000	      1.18819572	      1.92661640	     -0.19550911	     -0.75077926	      0.91108565	      0.22408660	     27.95207268	     -1.38990784	     -5.40776728	    -28.54431848	     -0.93813011	     -6.69006809	     12.32481960	     -9.06313533	      5.97514966	      6.27683538	    -11.40597194	     12.72996617	      0.30057939	      2.90103784	     -7.28411065	     -1.31748604	     -7.85008414	     -7.13023741	    -16.50966502	      8.60086142	     20.66525747	     86.51662706	      0.00000000	      0.00000000	     -1.61155685	    -19.50566576	     11.05674918	     33.26750788	     85.94366927	      0.00000000	      0.00000000
      2.07000000	      1.21386054	      1.90875818	     -0.06402092	     -0.73799341	      0.90931846	      0.22483922	     27.96151535	     -1.41498812	     -5.90406019	    -25.32841503	     -0.55759447	     -4.56857002	     11.89027623	    -10.24101963	      5.83022993	      6.41103254	    -10.96197413	     12.97705750	      0.47438609	      2.98558740	     -7.35807628	     -1.27870892	     -8.09483194	     -7.23544149	    -16.39720005	      8.59460820	     20.31797226	     86.51662706	      0.00000000	      0.00000000	     -1.21242596	    -19.68821314	     11.11874435	     33.48164504	     85.94366927	      0.00000000	      0.00000000
      2.08000000	      1.21886111	      1.87083833	      0.07315346	     -0.72508927	      0.90761598	      0.22562684	     27.96267553	     -1.40833848	     -6.48976486	    -22.30373780	     -0.13548399	     -2.39375729	     11.46453579	    -11.32809671	      5.64594475	      6.52658927	    -10.65368103	     13.21650892	      0.70009006	      3.10440196	     -7.39441309	     -1.21212445	     -8.33681612	     -7.33046754	    -16.28615307	      8.59442171	     19.98556448	     86.51662706	      0.00000000	      0.00000000	     -0.82913805	    -19.85037059	     11.20311757	     33.64722663	     85.94366927	      0.00000000	      0.00000000
